<svg width="50" height="50" viewBox="0 0 50 50" fill="none" xmlns="http://www.w3.org/2000/svg">
<path d="M4.66369 38.3764C4.58269 38.0946 4.79417 37.8138 5.08733 37.8138L44.9127 37.8138C45.2059 37.8138 45.4173 38.0946 45.3363 38.3764V38.3764C44.7933 40.2653 43.0653 41.5665 41.0999 41.5665H8.90011C6.93469 41.5665 5.20672 40.2653 4.66369 38.3764V38.3764Z" stroke="#333336" stroke-width="1.5" stroke-linecap="round" stroke-linejoin="round"/>
<path d="M35.5 45H14.5" stroke="#333336" stroke-width="1.5" stroke-linecap="round" stroke-linejoin="round"/>
<path d="M13.8142 32.6205C13.784 32.2087 14.0082 31.8148 14.3944 31.6687C16.0071 31.0587 17.6009 31.0517 19.1314 31.6629C19.5044 31.8118 19.7154 32.1976 19.6862 32.5981L19.3106 37.7608H14.1908L13.8142 32.6205Z" stroke="#333336" stroke-width="1.5"/>
<path d="M19.2439 33.2343C20.4579 32.874 21.7494 33.0665 22.8894 33.7069C23.2758 33.924 23.4127 34.3996 23.2636 34.8149L22.2139 37.7391L18.8113 37.7675" stroke="#333336" stroke-width="1.5"/>
<path d="M26.0515 38.0357C25.9788 37.3289 25.3872 34.6882 23.0466 34.8547" stroke="#333336" stroke-width="1.5"/>
<path d="M14.323 33.2343C13.109 32.874 11.8175 33.0665 10.6775 33.707C10.2911 33.924 10.1542 34.3996 10.3033 34.8149L11.353 37.7391L14.7556 37.7675" stroke="#333336" stroke-width="1.5"/>
<path d="M7.51541 38.0358C7.58808 37.329 8.17973 34.6883 10.5203 34.8547" stroke="#333336" stroke-width="1.5"/>
<path d="M28.2495 23.68C28.2495 23.1277 28.6972 22.68 29.2495 22.68H40.2213C40.7736 22.68 41.2213 23.1277 41.2213 23.68V30.6389C41.2213 34.344 38.6789 37.8032 34.9738 37.8137C34.8678 37.814 34.7619 37.8135 34.6558 37.8121C30.881 37.7647 28.2495 34.2608 28.2495 30.4858V23.68Z" stroke="#333336" stroke-width="1.5"/>
<path d="M41.7407 26.3636H43.2467C44.5518 26.3636 45.6098 27.5986 45.6098 29.1221C45.6098 30.6456 44.5518 31.8806 43.2467 31.8806H41.2212" stroke="#333336" stroke-width="1.5" stroke-linecap="round" stroke-linejoin="round"/>
<path d="M37.0004 13.6197L37.1238 13.7155C37.9922 14.3899 38.152 15.6401 37.4815 16.5134L37.1994 16.8808C36.5794 17.6883 36.7272 18.8441 37.53 19.4676V19.4676" stroke="#333336" stroke-width="1.5" stroke-linecap="round" stroke-linejoin="round"/>
<path d="M33.2557 13.6197L33.3792 13.7155C34.2476 14.3899 34.4074 15.6401 33.7368 16.5134L33.4547 16.8808C32.8348 17.6883 32.9825 18.8441 33.7854 19.4676V19.4676" stroke="#333336" stroke-width="1.5" stroke-linecap="round" stroke-linejoin="round"/>
<path d="M35.2469 35.205C35.8477 35.044 36.4051 34.7445 36.8873 34.3238C37.3695 33.903 37.7671 33.3691 38.0572 32.7525C38.3123 32.2106 38.48 31.6141 38.5535 30.9897" stroke="#333336" stroke-width="1.5" stroke-linecap="round" stroke-linejoin="round"/>
<circle cx="12.4042" cy="17.9048" r="2.71035" stroke="#333336" stroke-width="1.5"/>
<line x1="12.2646" y1="12.9804" x2="12.2646" y2="11.75" stroke="#333336" stroke-width="1.5" stroke-linecap="round"/>
<line x1="12.2646" y1="24.0549" x2="12.2646" y2="22.8245" stroke="#333336" stroke-width="1.5" stroke-linecap="round"/>
<line x1="17.3262" y1="17.7628" x2="18.5566" y2="17.7628" stroke="#333336" stroke-width="1.5" stroke-linecap="round"/>
<line x1="6.25195" y1="17.7628" x2="7.48233" y2="17.7628" stroke="#333336" stroke-width="1.5" stroke-linecap="round"/>
<line x1="15.7861" y1="14.3233" x2="16.6561" y2="13.4533" stroke="#333336" stroke-width="1.5" stroke-linecap="round"/>
<line x1="7.95508" y1="22.1542" x2="8.82509" y2="21.2841" stroke="#333336" stroke-width="1.5" stroke-linecap="round"/>
<line x1="15.9835" y1="21.284" x2="16.8535" y2="22.154" stroke="#333336" stroke-width="1.5" stroke-linecap="round"/>
<line x1="8.15246" y1="13.4534" x2="9.02247" y2="14.3234" stroke="#333336" stroke-width="1.5" stroke-linecap="round"/>
</svg>
